<?xml version="1.0" standalone="no"?>
<!DOCTYPE svg PUBLIC "-//W3C//DTD SVG 1.1//EN" "http://www.w3.org/Graphics/SVG/1.1/DTD/svg11.dtd" >
<svg xmlns="http://www.w3.org/2000/svg">
<metadata>Generated by IcoMoon</metadata>
<defs>
<font id="ritchie-icons" horiz-adv-x="1024">
<font-face units-per-em="1024" ascent="960" descent="-64" />
<missing-glyph horiz-adv-x="1024" />
<glyph unicode="&#x20;" horiz-adv-x="512" d="" />
<glyph unicode="&#xe900;" glyph-name="arrow-down" horiz-adv-x="1536" d="M0 960h1536l-768-938.667-768 938.667z" />
<glyph unicode="&#xe901;" glyph-name="audio" horiz-adv-x="1170" d="M423.962 871.947c-16.378 6.592-34.899 3.033-47.637-9.261l-227.471-223.185c-4.003-3.963-7.36-8.411-9.22-13.83h-123.097c-9.139 0-16.459-7.036-16.459-16.095v-260.591c0-8.897 7.32-16.135 16.459-16.135h123.097c1.86-4.974 5.217-9.827 9.22-13.507l227.471-223.185c8.694-8.007 19.977-12.415 31.219-12.415 5.459 0 10.959 1.051 16.418 2.871 16.135 6.956 26.852 22.444 26.852 39.388v706.475c0 17.389-10.716 32.715-26.852 39.469zM652.068 627.536c-23.536 22.686-64.258 22.686-87.349 0-11.768-11.444-18.4-26.811-18.4-43.189 0-16.135 6.632-31.26 18.4-42.663 16.742-16.742 26.326-38.903 26.326-61.953 0-23.9-9.584-45.979-26.326-62.762-24.749-23.172-24.749-62.034 0-85.65 11.647-11.647 27.054-17.753 43.594-17.753 16.418 0 31.987 6.106 43.755 17.753 40.399 39.59 62.721 92.202 62.721 148.412 0 55.685-22.322 108.013-62.721 147.806zM812.916 785.108c-23.333 22.808-63.935 22.808-87.228 0-24.304-23.738-24.304-61.913 0-85.812 60.052-58.88 92.727-136.361 92.727-219.626 0-83.143-32.675-161.11-92.727-220.273-24.304-24.021-24.304-62.317 0-85.934 11.121-11.525 27.135-17.955 43.513-17.955 16.54 0 32.19 6.43 43.715 17.955 83.426 81.607 129.325 190.226 129.325 306.206 0 115.131-45.899 223.912-129.325 305.438zM886.725 942.834c-24.264-23.9-24.264-62.438 0-85.893 103.161-100.936 159.412-234.791 159.412-377.218 0-142.629-56.292-277.292-159.412-378.148-12.172-11.404-18.198-26.488-18.198-42.906 0-16.176 6.025-31.624 18.198-42.623 11.161-11.93 26.933-17.874 43.715-17.874 16.378 0 31.987 5.945 43.553 17.874 126.494 123.866 196.292 288.373 196.292 463.677 0 174.576-69.798 339.124-196.050 463.111-23.172 22.889-64.784 22.889-87.511 0z" />
<glyph unicode="&#xe902;" glyph-name="bid" horiz-adv-x="727" d="M297.29 7.944c0-26.789 21.669-48.491 48.458-48.491s48.524 21.702 48.524 48.491v258.378h-96.983v-258.378zM455.911 864.173c0 52.951-42.942 95.827-95.86 95.827-52.951 0-95.794-42.876-95.794-95.827s42.843-95.827 95.794-95.827c52.918 0 95.86 42.876 95.86 95.827zM653.147 728.774h-588.47c-35.543 0-64.677-29.101-64.677-64.677v-302.311c0-35.576 29.134-64.677 64.677-64.677h588.47c35.576 0 64.677 29.101 64.677 64.677v302.311c0 35.576-29.101 64.677-64.677 64.677z" />
<glyph unicode="&#xe903;" glyph-name="cart" horiz-adv-x="1252" d="M359.136 162.778c-62.654 0-113.512-50.745-113.512-113.399s50.859-113.399 113.512-113.399c62.502 0 113.361 50.745 113.361 113.399s-50.859 113.399-113.361 113.399zM695.019 162.778c-62.502 0-113.436-50.745-113.436-113.399s50.935-113.399 113.436-113.399c62.729 0 113.512 50.745 113.512 113.399s-50.783 113.399-113.512 113.399zM1204.687 940.222h-78.317c-18.091 0-34.551-10.278-42.515-26.472l-348.046-689.038h71.87v0.417c1.138-0.038 2.313-0.379 3.565-0.379 17.484 0 34.209 9.747 42.515 26.51l301.966 594.299h48.962c26.131 0 47.445 21.201 47.445 47.332 0 26.093-21.314 47.332-47.445 47.332zM896.319 686.258h-869.945c-9.064 0-17.484-4.703-22.225-12.326-4.892-7.623-5.499-17.18-1.555-25.41l204.193-408.804c4.437-9.178 13.729-15.019 23.855-15.019h428.866l236.809 461.559z" />
<glyph unicode="&#xe904;" glyph-name="check" d="M756.746 618.318l-223.414-446.253c-11.562-23.009-34.11-38.424-59.765-40.955-2.416-0.23-4.947-0.403-7.363-0.403-22.951 0-44.982 10.699-59.247 29.048l-136.729 176.362c-25.31 32.73-19.5 79.84 13.345 105.207 32.73 25.482 79.84 19.442 105.15-13.288l63.792-82.198 170.092 339.723c18.407 36.929 63.389 52.057 100.605 33.363 37.101-18.464 52-63.504 33.535-100.605zM1019.045 441.324c0 275.989-224.507 500.496-500.381 500.496s-500.496-224.507-500.496-500.496c0-275.874 224.622-500.324 500.496-500.324s500.381 224.45 500.381 500.324z" />
<glyph unicode="&#xe905;" glyph-name="clock" d="M501.259-0.205c-241.247 0-437.476 196.267-437.476 437.513 0 241.209 196.229 437.438 437.476 437.438s437.476-196.229 437.476-437.438c0-241.247-196.229-437.513-437.476-437.513zM501.259 938.538c-276.366 0-501.267-224.825-501.267-501.229s224.901-501.305 501.267-501.305c276.404 0 501.267 224.901 501.267 501.305s-224.863 501.229-501.267 501.229zM797.074 398.074c-21.314 0-38.609 17.332-38.609 38.609 0 21.314 17.294 38.571 38.609 38.571s38.571-17.256 38.571-38.571c0-21.276-17.256-38.609-38.571-38.609zM640.667 297.836c-12.288-12.288-32.199-12.288-44.449 0l-117.191 117.229c-0.417 0.455-0.607 1.1-1.024 1.555-2.313 2.579-4.361 5.348-5.727 8.647-1.555 3.831-2.427 7.964-2.427 12.060v293.774c0 17.37 14.033 31.403 31.403 31.403 17.332 0 31.403-14.033 31.403-31.403v-280.804l108.013-108.013c12.212-12.25 12.212-32.161 0-44.449zM501.328 102.328c-21.276 0-38.571 17.332-38.571 38.609 0 21.314 17.294 38.571 38.571 38.571 21.314 0 38.609-17.256 38.609-38.571 0-21.276-17.294-38.609-38.609-38.609zM204.216 398.074c-21.314 0-38.571 17.332-38.571 38.609 0 21.314 17.256 38.571 38.571 38.571 21.352 0 38.609-17.256 38.609-38.571 0-21.276-17.256-38.609-38.609-38.609zM501.252 818.787c-210.792 0-381.611-170.818-381.611-381.459 0-210.754 170.818-381.649 381.611-381.649 210.83 0 381.573 170.894 381.573 381.649 0 210.641-170.743 381.459-381.573 381.459z" />
<glyph unicode="&#xe906;" glyph-name="close" d="M391.902 447.418l-317.505 317.505c-33.325 33.325-33.325 87.355 0 120.68s87.355 33.325 120.68 0l317.505-317.505 317.505 317.505c33.325 33.325 87.355 33.325 120.68 0s33.325-87.355 0-120.68l-317.505-317.505 317.505-317.505c33.325-33.325 33.325-87.355 0-120.68s-87.355-33.325-120.68 0l-317.505 317.505-317.505-317.505c-33.325-33.325-87.355-33.325-120.68 0s-33.325 87.355 0 120.68l317.505 317.505z" />
<glyph unicode="&#xe907;" glyph-name="dei" horiz-adv-x="652" d="M558.545 960h-465.455c-51.2 0-93.091-41.891-93.091-93.091v-837.818c0-51.2 41.891-93.091 93.091-93.091h465.455c51.2 0 93.091 41.891 93.091 93.091v837.818c0 51.2-41.891 93.091-93.091 93.091v0zM93.091 866.909h372.364v-325.818h-372.364v325.818zM558.545 122.182h-465.455v46.545h465.455v-46.545zM558.545 261.818h-465.455v46.545h465.455v-46.545zM558.545 401.455h-465.455v46.545h465.455v-46.545z" />
<glyph unicode="&#xe908;" glyph-name="eye" horiz-adv-x="1820" d="M906.827 75.136c-201.242 0-364.396 166.176-364.396 371.144s163.154 371.144 364.396 371.144c201.242 0 364.396-166.176 364.396-371.144s-163.154-371.144-364.396-371.144zM906.827 943.917c-500.835 0-906.818-497.636-906.818-497.636s405.983-497.636 906.818-497.636c500.835 0 906.818 497.636 906.818 497.636s-405.983 497.636-906.818 497.636zM1141.003 547.361c-16.148-35.662-51.327-60.537-92.393-60.537-56.292 0-101.945 46.474-101.945 103.809 0 41.851 24.446 77.706 59.46 94.129-30.498 13.196-64.070 20.516-99.297 20.516-140.434 0-254.271-115.969-254.271-259.004s113.837-258.98 254.271-258.98c140.434 0 254.295 115.945 254.295 258.98 0 35.879-7.187 70.025-20.119 101.088z" />
<glyph unicode="&#xe909;" glyph-name="help" d="M512 866.909c232.727 0 418.909-186.182 418.909-418.909s-186.182-418.909-418.909-418.909c-232.727 0-418.909 186.182-418.909 418.909s186.182 418.909 418.909 418.909v0zM512 960c-283.927 0-512-228.073-512-512s228.073-512 512-512c283.927 0 512 228.073 512 512s-228.073 512-512 512v0 0zM512 820.364c-204.8 0-372.364-167.564-372.364-372.364s167.564-372.364 372.364-372.364c204.8 0 372.364 167.564 372.364 372.364s-167.564 372.364-372.364 372.364v0zM507.345 192c-27.927 0-46.545 23.273-46.545 46.545 0 27.927 23.273 46.545 46.545 46.545 27.927 0 46.545-23.273 46.545-46.545s-23.273-46.545-46.545-46.545v0zM637.673 508.509c-9.309-18.618-32.582-46.545-65.164-79.127-18.618-18.618-27.927-32.582-32.582-41.891s-4.655-27.927-4.655-55.855c-37.236-27.927-69.818 0-69.818 0v23.273c0 27.927 4.655 55.855 9.309 69.818 9.309 18.618 23.273 37.236 46.545 60.509s41.891 41.891 46.545 51.2c4.655 9.309 9.309 18.618 9.309 32.582 0 18.618-4.655 37.236-18.618 51.2s-27.927 18.618-46.545 18.618c-41.891 0-69.818-27.927-79.127-83.782-46.545-27.927-69.818 9.309-69.818 9.309 0 41.891 18.618 79.127 41.891 107.055 27.927 27.927 60.509 41.891 102.4 41.891s79.127-13.964 107.055-41.891c23.273-23.273 37.236-60.509 37.236-102.4 0-18.618-4.655-41.891-13.964-60.509v0z" />
<glyph unicode="&#xe90a;" glyph-name="loading" horiz-adv-x="951" d="M339.046 804.005c0 71.525 57.932 129.456 129.456 129.456s129.456-57.932 129.456-129.456c0-71.525-57.932-129.456-129.456-129.456s-129.456 57.932-129.456 129.456v0zM613.688 690.278c0 71.525 57.932 129.456 129.456 129.456s129.456-57.932 129.456-129.456c0-71.525-57.932-129.456-129.456-129.456s-129.456 57.932-129.456 129.456v0zM792.144 415.636c0 35.73 28.998 64.728 64.728 64.728s64.728-28.998 64.728-64.728c0-35.73-28.998-64.728-64.728-64.728s-64.728 28.998-64.728 64.728v0zM678.416 140.994c0 35.73 28.998 64.728 64.728 64.728s64.728-28.998 64.728-64.728c0-35.73-28.998-64.728-64.728-64.728s-64.728 28.998-64.728 64.728v0zM403.774 27.267v0c0 35.73 28.998 64.728 64.728 64.728s64.728-28.998 64.728-64.728v0c0-35.73-28.998-64.728-64.728-64.728s-64.728 28.998-64.728 64.728v0zM129.133 140.994v0c0 35.73 28.998 64.728 64.728 64.728s64.728-28.998 64.728-64.728v0c0-35.73-28.998-64.728-64.728-64.728s-64.728 28.998-64.728 64.728v0zM96.769 690.278v0c0 53.595 43.497 97.092 97.092 97.092s97.092-43.497 97.092-97.092v0c0-53.595-43.497-97.092-97.092-97.092s-97.092 43.497-97.092 97.092v0zM7.314 415.636c0 40.196 32.623 72.819 72.819 72.819s72.819-32.623 72.819-72.819c0-40.196-32.623-72.819-72.819-72.819s-72.819 32.623-72.819 72.819v0z" />
<glyph unicode="&#xe90b;" glyph-name="popout" d="M530.699 773.009h-307.787c-123.458 0-222.912-99.67-222.912-222.62v-387.529c0-122.995 99.801-222.62 222.912-222.62h428.582c123.458 0 222.912 99.67 222.912 222.62v266.441h-133.565v-266.441c0-49.296-39.768-89.054-89.347-89.054h-428.582c-49.404 0-89.347 39.884-89.347 89.054v387.529c0 49.296 39.768 89.054 89.347 89.054h307.787v133.565zM868.174 709.729l-468.369-468.369-94.445 94.445 468.369 468.369h-216.317v133.565h435.080v-11.576h9.247v-435.080h-133.565v218.645z" />
<glyph unicode="&#xe90c;" glyph-name="Photos" horiz-adv-x="1243" d="M1154.048 94.062c0-23.918-19.493-43.447-43.41-43.447h-992.439c-23.881 0-43.374 19.529-43.374 43.447v747.739c0 23.918 19.493 43.41 43.374 43.41h992.439c23.918 0 43.41-19.493 43.41-43.41v-747.739zM1110.638 960h-992.439c-65.134 0-118.199-53.065-118.199-118.199v-747.739c0-65.207 53.065-118.272 118.199-118.272h992.439c65.17 0 118.199 53.065 118.199 118.272v747.739c0 65.134-53.029 118.199-118.199 118.199v0zM878.942 483.083c-14.336 24.393-39.095 25.234-54.967 1.829l-105.984-155.977c-9.947-14.519-29.769-18.249-44.178-8.375-14.665 9.911-18.286 29.586-8.485 44.142l30.939 45.385-180.736 276.773c-15.433 23.625-39.131 22.711-52.809-2.011l-274.322-499.968c-13.495-24.759-1.499-45.129 26.734-45.129l814.482-0.293c28.343 0 39.79 20.005 25.417 44.361l-176.091 299.264z" />
<glyph unicode="&#xe90d;" glyph-name="plus" horiz-adv-x="931" d="M587.5 353.591v-338.864h-191.864v338.864h-332.182v191.864h332.182v327.409h191.864v-327.409h333.136v-191.864h-333.136z" />
<glyph unicode="&#xe90e;" glyph-name="next" horiz-adv-x="259" d="M8.887 923.729l212.706-470.007-0.157 15.675-212.706-496.314c-4.23-9.87 0.342-21.3 10.212-25.53s21.3 0.342 25.53 10.212l212.706 496.314c2.15 5.016 2.092 10.704-0.157 15.675l-212.706 470.007c-4.427 9.783-15.947 14.124-25.73 9.697s-14.124-15.947-9.697-25.73v0z" />
<glyph unicode="&#xe90f;" glyph-name="sale" d="M743.39 128.808l-78.279 78.279-9.444-9.481c-24.007-24.045-32.351-39.253-18.849-52.717 11.985-12.060 24.614-6.903 45.208 11.492l43.008-43.008c-39.215-37.547-78.772-35.271-117.115 3.11-58.52 58.482-22.149 104.031 24.007 150.187 43.539 43.539 88.519 63.336 138.961 12.857 57.572-57.572 25.297-98.001-27.496-150.718v0zM532.787 199.578l-46.421 46.421 204.61 204.572 46.459-46.421-204.648-204.572zM429.098 303.305c3.717 7.13 9.481 14.071 15.208 20.328l-0.531 0.569c-20.101-7.433-42.743-0.834-58.254 14.639-26.055 26.055-27.458 54.993 6.030 88.519 18.015 18.091 40.732 25.79 58.52 20.632 17.673-5.158 37.812-19.494 54.12-28.937 17.711-10.316 22.642-10.581 34.361 1.176 9.481 9.444 11.15 19.759 0.834 30.075-12.857 12.857-24.348 8.837-38.078-4.324l-41.263 41.263c21.466 20.935 40.695 27.496 59.051 24.083 18.318-3.451 34.057-14.033 53.248-33.261 38.078-38.116 41.87-68.153 9.178-100.845l-79.644-79.644c-11.757-11.757-26.662-26.662-28.065-38.95l-44.715 44.677zM264.082 460.28c-34.93 34.968-56.737 77.938-13.995 120.604l13.198 13.198 46.345-46.421-7.13-7.168c-15.474-15.436-22.945-31.554-6.334-48.128 16.953-16.915 34.437-9.178 46.156 2.579 44.108 44.146-68.494 107.444 8.040 183.941 32.692 32.692 77.634 42.705 127.204-6.865 48.090-48.128 40.96-89.695 9.444-121.211l-4.855-4.855-46.383 46.421c9.709 9.709 15.739 18.053 17.446 25.524 1.934 7.737-0.303 14.564-7.471 21.769-12.023 12.023-26.396 12.023-41.263-2.882-42.705-42.667 66.75-109.189-5.423-181.4-46.383-46.421-90.833-39.253-134.978 4.892v0zM972.007 373.658l-471.154 471.078-307.503 0.455c-14.412-0.114-28.786-3.375-42.174-9.254l39.86-39.898c22.907 5.006 47.825-1.327 65.688-19.191 27.913-27.913 27.951-73.159 0.038-101.073-27.951-27.951-73.197-27.913-100.997 0-17.901 17.901-24.235 42.818-19.228 65.801l-39.86 39.784c-6.068-13.691-9.292-28.369-9.292-43.16l0.417-306.555 471.002-471.040c32.692-32.73 85.788-32.844 118.594-0.038l294.495 294.571c32.806 32.692 32.92 85.788 0.114 118.519v0zM692.053 233.992l33.564-33.527c21.769 21.807 30.644 36.409 17.787 49.304-15.17 15.17-30.417 5.158-51.352-15.777zM465.241 397.289c-8.647 1.176-15.815-1.441-24.424-10.050-12.288-12.326-14.829-24.614-6.296-33.223 9.785-9.747 24.348-12.895 39.86 2.579 12.857 12.895 21.201 20.632 27.496 26.927-22.338 6.903-28.937 12.895-36.636 13.767zM167.128 710.99c15.095-15.057 39.329-15.057 54.424 0 15.019 15.095 15.132 39.405 0.076 54.462l-155.913 155.876c-15.019 14.981-39.405 15.019-54.424-0.038-15.057-15.057-15.057-39.443 0-54.462l155.838-155.838z" />
<glyph unicode="&#xe910;" glyph-name="search" d="M258.695 426.442c-10.779-10.779-26.947-10.779-37.726 0-86.232 86.232-86.232 226.358 0 312.589 10.779 10.779 26.947 10.779 37.726 0s10.779-26.947 0-37.726c-64.674-64.674-64.674-172.463 0-237.137 10.779-10.779 10.779-26.947 0-37.726v0zM970.105 97.684l-269.474 269.474c-5.389 5.389-5.389 5.389-10.779 5.389 43.116 59.284 64.674 134.737 64.674 210.189 0 210.189-167.074 377.263-377.263 377.263s-377.263-167.074-377.263-377.263c0-210.189 167.074-377.263 377.263-377.263 75.453 0 150.905 21.558 210.189 64.674 0-5.389 5.389-5.389 5.389-10.779l269.474-269.474c32.337-32.337 75.453-32.337 107.789 0v0c26.947 32.337 26.947 80.842 0 107.789v0zM377.263 313.263c-150.905 0-269.474 118.568-269.474 269.474s118.568 269.474 269.474 269.474c150.905 0 269.474-118.568 269.474-269.474s-118.568-269.474-269.474-269.474v0z" />
<glyph unicode="&#xe911;" glyph-name="user" horiz-adv-x="838" d="M744.727 541.091h-651.636c-51.2 0-93.091-41.891-93.091-93.091v-279.273c0-27.927 18.618-46.545 46.545-46.545s46.545 18.618 46.545 46.545v232.727h93.091v-372.364c0-51.2 41.891-93.091 93.091-93.091h279.273c51.2 0 93.091 41.891 93.091 93.091v372.364h93.091v-232.727c0-27.927 18.618-46.545 46.545-46.545s46.545 18.618 46.545 46.545v279.273c0 51.2-41.891 93.091-93.091 93.091v0zM605.091 773.818c0-102.825-83.356-186.182-186.182-186.182s-186.182 83.356-186.182 186.182c0 102.825 83.356 186.182 186.182 186.182s186.182-83.356 186.182-186.182z" />
<glyph unicode="&#xe912;" glyph-name="warning" horiz-adv-x="1147" d="M1115.38 46.347l-490.688 849.866c-16.642 28.86-38.597 43.306-60.584 43.306s-43.943-14.446-60.584-43.306l-490.688-849.866c-33.347-57.689-6.046-104.941 60.584-104.941h981.376c66.598 0 93.899 47.252 60.584 104.941v0zM509.632 588.392c0 30.133 24.406 54.539 54.57 54.539 30.069 0 54.475-24.406 54.475-54.539v-287.998c0-30.101-24.406-54.507-54.475-54.507-30.165 0-54.57 24.406-54.57 54.507v287.998zM564.139 76.48c-32.424 0-58.707 26.251-58.707 58.675 0 32.297 26.283 58.611 58.707 58.611 32.297 0 58.58-26.315 58.58-58.611 0-32.424-26.283-58.675-58.58-58.675v0z" />
<glyph unicode="&#xe913;" glyph-name="warranty" horiz-adv-x="884" d="M857.108 861.823c7.48-5.265 11.878-13.836 11.878-22.953v-261.569c0-273.992-152.999-519.092-399.223-639.54-7.897-3.949-17.046-3.949-24.879 0-246.288 120.447-399.287 365.548-399.287 639.54v261.569c0 9.117 4.398 17.688 11.782 22.953 7.48 5.393 16.886 6.774 25.585 3.949 35.922-11.974 73.546-18.041 111.876-18.041 90.849 0 177.044 34.606 242.821 97.494 11.043 10.401 28.282 10.401 39.197 0 65.777-62.888 152.036-97.494 242.949-97.494 38.266 0 75.793 6.067 111.844 18.041 8.603 2.825 18.138 1.445 25.457-3.949zM540.22 203.188c29.581-29.581 77.669-29.581 107.25 0 14.291 14.291 22.186 33.333 22.186 53.554 0 20.293-7.896 39.37-22.186 53.697l-271.52 271.448c2.179 11.682 2.715 23.579 1.679 35.298-2.644 29.117-15.076 57.484-37.334 79.813-38.227 38.227-94.389 47.48-141.405 27.866l75.954-75.883c11.361-11.468 11.397-30.046-0.071-41.478l-31.618-31.689c-11.432-11.361-30.046-11.432-41.442 0l-74.275 74.275c-16.827-45.873-6.967-99.283 29.831-136.117 20.185-20.078 45.301-32.082 71.417-36.191 12.397-1.929 24.937-2.036 37.37-0.393l274.163-274.199zM568.265 282.393c15.434 15.362 40.406 15.434 55.804 0 15.434-15.434 15.434-40.478 0.036-55.804-15.434-15.469-40.406-15.469-55.912-0.071-15.362 15.398-15.398 40.442 0.071 55.876z" />
<glyph unicode="&#xe914;" glyph-name="prev" horiz-adv-x="272" d="M226.543 939.762l-212.706-470.007c-2.25-4.972-2.307-10.66-0.157-15.675l212.706-496.314c4.23-9.87 15.66-14.442 25.53-10.212s14.442 15.66 10.212 25.53l-212.706 496.314-0.157-15.675 212.706 470.007c4.427 9.783 0.086 21.303-9.697 25.73s-21.303 0.086-25.73-9.697v0z" />
<glyph unicode="&#xe915;" glyph-name="check-inner" d="M768 889.6c-48 19.2-102.4-3.2-124.8-51.2l-214.4-512-60.8 99.2c-25.6 44.8-83.2 60.8-128 32-44.8-25.6-60.8-83.2-32-128l156.8-262.4c19.2-32 51.2-48 86.4-44.8s67.2 25.6 80 57.6l288 684.8c22.4 48 0 105.6-51.2 124.8z" />
<glyph unicode="&#xe916;" glyph-name="info" d="M611.2 822.4c0-54.787-44.413-99.2-99.2-99.2s-99.2 44.413-99.2 99.2c0 54.787 44.413 99.2 99.2 99.2s99.2-44.413 99.2-99.2zM611.2 582.4v0c-3.2 6.4 0 16-3.2 22.4-12.8 51.2-67.2 86.4-118.4 73.6-44.8-9.6-73.6-51.2-73.6-96h-3.2v-473.6h3.2c0-6.4 0-16 0-22.4 12.8-51.2 67.2-86.4 118.4-73.6 44.8 9.6 73.6 51.2 73.6 96h3.2v473.6z" />
<glyph unicode="&#xe917;" glyph-name="settings" d="M953.6 547.2c12.8 6.4 19.2 22.4 16 35.2v0c-9.6 38.4-25.6 76.8-48 112s-44.8 70.4-73.6 96v0c-9.6 9.6-25.6 12.8-38.4 3.2-3.2-3.2-6.4-6.4-9.6-9.6l-22.4-25.6c-41.6 38.4-86.4 67.2-137.6 83.2l9.6 32c3.2 3.2 3.2 9.6 3.2 12.8 0 16-9.6 28.8-22.4 32v0c-38.4 9.6-80 16-121.6 16s-83.2-6.4-121.6-16c-12.8-3.2-22.4-16-22.4-32 0-6.4 0-9.6 3.2-12.8l9.6-32c-51.2-16-96-44.8-137.6-80l-22.4 28.8c-3.2 3.2-6.4 6.4-9.6 9.6-12.8 6.4-28.8 3.2-38.4-6.4v0c-28.8-28.8-54.4-60.8-73.6-96-22.4-35.2-38.4-73.6-48-112v0c-3.2-12.8 3.2-28.8 16-35.2 3.2-6.4 6.4-6.4 12.8-6.4l32-6.4c-6.4-25.6-6.4-51.2-6.4-80 0-25.6 3.2-54.4 6.4-80l-32-6.4c-3.2 0-9.6-3.2-12.8-3.2-12.8-6.4-19.2-22.4-16-35.2v0c9.6-41.6 25.6-76.8 48-115.2 22.4-35.2 44.8-70.4 73.6-99.2v0c9.6-9.6 25.6-12.8 38.4-3.2 3.2 3.2 6.4 6.4 9.6 9.6l22.4 25.6c38.4-35.2 86.4-60.8 137.6-80l-9.6-32c-3.2-3.2-3.2-9.6-3.2-12.8 0-16 9.6-28.8 22.4-32v0c38.4-9.6 80-16 121.6-16s83.2 6.4 121.6 16v0c12.8 3.2 22.4 16 22.4 32 0 6.4 0 9.6-3.2 12.8l-9.6 32c51.2 16 96 44.8 137.6 80l22.4-25.6c3.2-3.2 6.4-6.4 9.6-9.6 12.8-6.4 28.8-6.4 38.4 3.2v0c28.8 28.8 51.2 60.8 73.6 99.2 22.4 35.2 35.2 73.6 48 112v0c3.2 12.8-3.2 28.8-16 35.2-3.2 3.2-9.6 3.2-12.8 3.2l-32 6.4c6.4 25.6 6.4 51.2 6.4 80 0 25.6-3.2 54.4-6.4 80l32 6.4c6.4 3.2 9.6 3.2 12.8 6.4zM508.8 233.6c-124.8 0-224 102.4-224 224 0 124.8 102.4 224 224 224 124.8 0 224-102.4 224-224 0-124.8-99.2-224-224-224zM508.8 585.6c-70.4 0-128-57.6-128-128s57.6-128 128-128c70.4 0 128 57.6 128 128s-57.6 128-128 128z" />
<glyph unicode="&#xe918;" glyph-name="unlocked" d="M768 896c105.87 0 192-86.13 192-192v-192h-128v192c0 35.29-28.71 64-64 64h-128c-35.29 0-64-28.71-64-64v-192h16c26.4 0 48-21.6 48-48v-480c0-26.4-21.6-48-48-48h-544c-26.4 0-48 21.6-48 48v480c0 26.4 21.6 48 48 48h400v192c0 105.87 86.13 192 192 192h128z" />
<glyph unicode="&#xe919;" glyph-name="lock" d="M592 512h-16v192c0 105.87-86.13 192-192 192h-128c-105.87 0-192-86.13-192-192v-192h-16c-26.4 0-48-21.6-48-48v-480c0-26.4 21.6-48 48-48h544c26.4 0 48 21.6 48 48v480c0 26.4-21.6 48-48 48zM192 704c0 35.29 28.71 64 64 64h128c35.29 0 64-28.71 64-64v-192h-256v192z" />
<glyph unicode="&#xe91a;" glyph-name="ccy" d="M262.4 518.4c0-19.2 12.8-35.2 32-44.8v86.4c-19.2-6.4-32-22.4-32-41.6zM339.2 419.2v-86.4c19.2 9.6 32 25.6 32 44.8-3.2 19.2-16 35.2-32 41.6zM688 771.2c-64 0-124.8-19.2-172.8-51.2-51.2 32-108.8 51.2-176 51.2-179.2 0-326.4-144-326.4-323.2s147.2-323.2 326.4-323.2c64 0 124.8 19.2 176 51.2 51.2-32 108.8-51.2 172.8-51.2 179.2 0 323.2 144 323.2 323.2s-147.2 323.2-323.2 323.2zM339.2 288v-19.2c0-12.8-9.6-22.4-22.4-22.4s-22.4 9.6-22.4 22.4v16c-28.8 3.2-51.2 16-70.4 38.4-6.4 9.6-6.4 22.4 3.2 28.8s22.4 6.4 28.8-3.2c9.6-9.6 19.2-19.2 35.2-22.4v102.4c-44.8 9.6-73.6 48-73.6 89.6s32 76.8 73.6 89.6v19.2c0 12.8 9.6 22.4 22.4 22.4s22.4-9.6 22.4-22.4v-16c28.8-3.2 51.2-16 70.4-38.4 6.4-9.6 6.4-22.4-3.2-28.8s-22.4-6.4-28.8 3.2c-9.6 9.6-19.2 19.2-35.2 22.4v-102.4c41.6-9.6 73.6-48 73.6-89.6s-32-76.8-73.6-89.6zM793.6 297.6h-195.2v128h-22.4c-12.8 0-22.4 9.6-22.4 22.4s9.6 22.4 22.4 22.4h22.4v22.4c0 60.8 48 108.8 108.8 108.8 38.4 0 73.6-19.2 92.8-54.4 6.4-9.6 3.2-22.4-6.4-28.8s-22.4-3.2-28.8 6.4c-12.8 19.2-32 32-54.4 32-35.2 0-64-28.8-64-64v-22.4h64c12.8 0 22.4-9.6 22.4-22.4s-9.6-22.4-22.4-22.4h-64v-86.4h150.4c12.8 0 22.4-9.6 22.4-22.4s-12.8-19.2-25.6-19.2z" />
<glyph unicode="&#xe91b;" glyph-name="calculator" d="M896 960h-768c-35.376 0-64-28.624-64-64v-896c0-35.376 28.624-64 64-64h768c35.376 0 64 28.624 64 64v896c0 35.376-28.624 64-64 64zM320 64h-128v128h128v-128zM320 256h-128v128h128v-128zM320 448h-128v128h128v-128zM576 64h-128v128h128v-128zM576 256h-128v128h128v-128zM576 448h-128v128h128v-128zM832 64h-128v128h128v-128zM832 256h-128v128h128v-128zM832 448h-128v128h128v-128zM832 704h-640v128h640v-128z" />
<glyph unicode="&#xe91c;" glyph-name="coin-pound" d="M480 896c-265.096 0-480-214.904-480-480s214.904-480 480-480c265.098 0 480 214.902 480 480s-214.902 480-480 480zM480 32c-212.078 0-384 171.922-384 384s171.922 384 384 384c212.074 0 384-171.922 384-384s-171.926-384-384-384zM608 256h-224v128h96c17.672 0 32 14.326 32 32s-14.328 32-32 32h-96v32c0 52.934 43.066 96 96 96 34.17 0 66.042-18.404 83.18-48.030 8.85-15.298 28.426-20.526 43.722-11.676 15.296 8.848 20.526 28.424 11.676 43.722-28.538 49.336-81.638 79.984-138.578 79.984-88.224 0-160-71.776-160-160v-32h-32c-17.672 0-32-14.326-32-32s14.328-32 32-32h32v-192h288c17.674 0 32 14.326 32 32s-14.326 32-32 32z" />
<glyph unicode="&#xe91d;" glyph-name="coin-dollar" d="M480 896c-265.096 0-480-214.904-480-480 0-265.098 214.904-480 480-480 265.098 0 480 214.902 480 480 0 265.096-214.902 480-480 480zM480 32c-212.078 0-384 171.922-384 384s171.922 384 384 384c212.078 0 384-171.922 384-384s-171.922-384-384-384zM512 448v128h128v64h-128v64h-64v-64h-128v-256h128v-128h-128v-64h128v-64h64v64h128.002l-0.002 256h-128zM448 448h-64v128h64v-128zM576.002 256h-64.002v128h64.002v-128z" />
<glyph unicode="&#xe91e;" glyph-name="trash" horiz-adv-x="967" d="M682.667 846.222h284.444v-170.667h-113.778v-739.556h-739.556v739.556h-113.778v170.667h284.444v113.778h398.222v-113.778zM341.333 590.222v-483.556h56.889v512h-56.889v-28.444zM568.889 590.222v-483.556h56.889v512h-56.889v-28.444z" />
<glyph unicode="&#xe91f;" glyph-name="error-1" horiz-adv-x="1331" d="M557.456 855.953c-4.598-5.595-8.994-11.535-13.164-17.806l-451.036-678.775c-34.962-52.632-41.374-104.218-17.936-145.47 23.308-41.294 71.743-64.012 136.338-64.012h235.331c20.838 0 37.734 16.317 37.734 36.399 0 20.249-16.896 36.524-37.734 36.524h-235.331c-35.265 0-60.739 9.455-70.14 26.023-9.314 16.484-3.812 42.591 15.206 71.166l112.068 168.575c2.068 1.929 3.937 4.115 5.554 6.545l333.457 503.655c19.972 29.998 44.753 46.44 70.010 46.44s50.081-16.651 70.010-46.565l333.371-503.684c1.753-2.635 3.803-4.982 6.080-7.026l111.543-167.784c19.019-28.575 24.521-54.682 15.206-71.166-9.401-16.568-34.875-26.023-70.14-26.023h-235.331c-20.838 0-37.734-16.275-37.734-36.524 0-20.082 16.896-36.399 37.734-36.399h235.331c64.595 0 113.030 22.718 136.338 64.012 23.438 41.252 17.026 92.838-17.936 145.47l-451.037 678.775c-33.835 50.875-82.487 79.952-133.652 79.868-44.698 0-87.569-22.369-120.141-62.217zM686.158 126.149c-50.038 0-90.632-39.202-90.632-87.483 0-48.364 40.594-87.692 90.632-87.692 50.168 0 90.719 39.327 90.719 87.692 0 48.281-40.55 87.483-90.719 87.483zM686.158 642.991v0c-61.519 0-111.557-48.155-111.557-107.523 0-8.535 0.953-16.693 2.903-24.642l63.728-288.136c4.332-19.957 22.875-35.102 44.926-35.102s40.507 15.145 44.969 35.186l63.728 288.053c1.95 7.949 2.903 16.233 2.903 24.642 0 59.493-50.038 107.523-111.6 107.523z" />
<glyph unicode="&#xe920;" glyph-name="sold" horiz-adv-x="935" d="M914.819 14.531c0 27.468-21.939 49.762-48.97 49.762h-783.524c-27.032 0-48.97-22.293-48.97-49.762v0c0-27.468 21.939-49.762 48.97-49.762h783.524c27.032 0 48.97 22.293 48.97 49.762v0zM452.589 960h43.094c44.857 0 83.984-31.051 94.855-75.289l177.37-720.895h-587.643l177.321 720.845c10.92 44.288 50.097 75.339 95.002 75.339v0z" />
<glyph unicode="&#xe921;" glyph-name="mail" d="M896 746.667h-768c-46.933 0-85.333-38.4-85.333-85.333v-38.4l469.333-213.333 469.333 213.333v38.4c0 46.933-38.4 85.333-85.333 85.333zM972.8 196.267c4.267 12.8 8.533 25.6 8.533 38.4v341.333l-345.6-157.867 337.067-221.867zM588.8 396.8l-76.8-34.133-76.8 34.133-354.133-234.667c12.8-8.533 29.867-12.8 46.933-12.8h768c17.067 0 34.133 4.267 46.933 12.8l-354.133 234.667zM388.267 418.133l-345.6 157.867v-341.333c0-12.8 4.267-25.6 8.533-38.4l337.067 221.867z" />
<glyph unicode="&#xe922;" glyph-name="max-1" d="M531.2 608c0-25.6 19.2-44.8 44.8-44.8s44.8 19.2 44.8 44.8c0 89.6-64 166.4-147.2 185.6v38.4c0 25.6-19.2 44.8-44.8 44.8s-44.8-19.2-44.8-44.8v-38.4c-86.4-19.2-147.2-96-147.2-185.6 0-70.4 35.2-134.4 99.2-169.6 16-9.6 32-16 48-22.4v-220.8c-35.2 16-60.8 54.4-60.8 96 0 25.6-19.2 44.8-44.8 44.8s-44.8-19.2-44.8-44.8c0-89.6 64-166.4 147.2-185.6v-41.6c0-25.6 19.2-44.8 44.8-44.8s44.8 19.2 44.8 44.8v41.6c86.4 19.2 147.2 96 147.2 185.6 0 73.6-41.6 137.6-105.6 172.8-16 6.4-28.8 12.8-41.6 19.2v220.8c38.4-16 60.8-54.4 60.8-96zM377.6 515.2c-35.2 19.2-54.4 51.2-54.4 92.8s25.6 80 60.8 96v-192c-3.2 0-3.2 3.2-6.4 3.2zM473.6 384c35.2-19.2 57.6-54.4 57.6-92.8 0-41.6-25.6-80-60.8-96v192c3.2 0 3.2-3.2 3.2-3.2zM915.2 748.8h-83.2v83.2c0 25.6-19.2 44.8-44.8 44.8s-41.6-19.2-41.6-44.8v-83.2h-83.2c-25.6 0-44.8-19.2-44.8-44.8s19.2-44.8 44.8-44.8h83.2v-83.2c0-25.6 19.2-44.8 44.8-44.8s44.8 19.2 44.8 44.8v86.4h83.2c25.6 0 44.8 19.2 44.8 44.8-3.2 22.4-22.4 41.6-48 41.6z" />
<glyph unicode="&#xe923;" glyph-name="max-4" d="M460.8 608c0-25.6 19.2-44.8 44.8-44.8s44.8 19.2 44.8 44.8c0 89.6-64 166.4-147.2 185.6v38.4c0 25.6-19.2 44.8-44.8 44.8s-48-19.2-48-44.8v-38.4c-86.4-19.2-147.2-96-147.2-185.6 0-70.4 35.2-134.4 99.2-169.6 16-9.6 32-16 48-22.4v-220.8c-35.2 16-60.8 54.4-60.8 96 0 25.6-19.2 44.8-44.8 44.8s-44.8-19.2-44.8-44.8c0-89.6 64-166.4 147.2-185.6v-41.6c0-25.6 19.2-44.8 44.8-44.8s44.8 19.2 44.8 44.8v41.6c86.4 19.2 147.2 96 147.2 185.6 0 73.6-41.6 137.6-105.6 172.8-16 6.4-28.8 12.8-41.6 19.2v220.8c38.4-16 64-54.4 64-96zM310.4 512c-3.2 0-3.2 3.2-6.4 3.2-35.2 19.2-54.4 51.2-54.4 92.8s25.6 80 60.8 96v-192zM403.2 384c35.2-19.2 57.6-54.4 57.6-92.8 0-41.6-25.6-80-60.8-96v192c0 0 0-3.2 3.2-3.2zM905.6 732.8l-99.2 99.2c-9.6 9.6-19.2 12.8-32 12.8 0 0 0 0 0 0s0 0-3.2 0-6.4 0-6.4 0c-6.4 0-12.8 0-19.2-3.2s-12.8-6.4-19.2-9.6l-99.2-99.2c-19.2-19.2-19.2-48 0-67.2s48-19.2 67.2 0l22.4 22.4v-246.4c0-25.6 22.4-48 48-48s48 22.4 48 48v246.4l25.6-25.6c19.2-19.2 48-19.2 67.2 0s19.2 51.2 0 70.4z" />
<glyph unicode="&#xe924;" glyph-name="max-3" d="M620.8 608c0-25.6 19.2-44.8 44.8-44.8s44.8 19.2 44.8 44.8c0 89.6-64 166.4-147.2 185.6v38.4c0 25.6-19.2 44.8-44.8 44.8s-48-19.2-48-44.8v-38.4c-86.4-19.2-147.2-96-147.2-185.6 0-70.4 35.2-134.4 99.2-169.6 16-9.6 32-16 48-22.4v-220.8c-35.2 16-60.8 54.4-60.8 96 0 25.6-19.2 44.8-44.8 44.8s-44.8-19.2-44.8-44.8c0-89.6 64-166.4 147.2-185.6v-41.6c0-25.6 19.2-44.8 44.8-44.8s44.8 19.2 44.8 44.8v41.6c86.4 19.2 147.2 96 147.2 185.6 0 73.6-41.6 137.6-105.6 172.8-16 6.4-28.8 12.8-41.6 19.2v220.8c38.4-16 64-54.4 64-96zM464 515.2c-35.2 19.2-54.4 51.2-54.4 92.8s25.6 80 60.8 96v-192c0 0-3.2 3.2-6.4 3.2zM563.2 384c35.2-19.2 57.6-54.4 57.6-92.8 0-41.6-25.6-80-60.8-96v192c0 0 0-3.2 3.2-3.2z" />
<glyph unicode="&#xe925;" glyph-name="arrow-left" d="M402.746 82.746l-320 320c-24.994 24.992-24.994 65.516 0 90.51l320 320c24.994 24.992 65.516 24.992 90.51 0 24.994-24.994 24.994-65.516 0-90.51l-210.746-210.746h613.49c35.346 0 64-28.654 64-64s-28.654-64-64-64h-613.49l210.746-210.746c12.496-12.496 18.744-28.876 18.744-45.254s-6.248-32.758-18.744-45.254c-24.994-24.994-65.516-24.994-90.51 0z" />
<glyph unicode="&#xe926;" glyph-name="pause" d="M128 832h320v-768h-320zM576 832h320v-768h-320z" />
</font>
</defs>
</svg>
