<?xml version="1.0" encoding="utf-8"?>
<!-- Generator: Adobe Illustrator 21.1.0, SVG Export Plug-In . SVG Version: 6.00 Build 0)  -->
<svg version="1.1" id="Layer_1" xmlns="http://www.w3.org/2000/svg" xmlns:xlink="http://www.w3.org/1999/xlink" x="0px" y="0px"
	 viewBox="0 0 125 125" style="enable-background:new 0 0 125 125;" xml:space="preserve">
<style type="text/css">
	.st0{fill:#FFFFFF;}
	.st1{filter:url(#Adobe_OpacityMaskFilter);}
	.st2{mask:url(#mask-2);fill:#DA461F;}
	.st3{fill:#DA461F;}
</style>
<path class="st0" d="M62.5,1.7C29,1.7,1.7,29,1.7,62.5c0,33.5,27.3,60.8,60.8,60.8s60.8-27.3,60.8-60.8C123.2,29,96,1.7,62.5,1.7"/>
<title>ICA - Large</title>
<desc>Created with Sketch.</desc>
<g id="Group-3">
	<g id="Clip-2">
	</g>
	<defs>
		<filter id="Adobe_OpacityMaskFilter" filterUnits="userSpaceOnUse" x="0" y="0" width="125" height="125">
			<feColorMatrix  type="matrix" values="1 0 0 0 0  0 1 0 0 0  0 0 1 0 0  0 0 0 1 0"/>
		</filter>
	</defs>
	<mask maskUnits="userSpaceOnUse" x="0" y="0" width="125" height="125" id="mask-2">
		<g class="st1">
			<polygon id="path-1" class="st0" points="0,62.5 0,0 125,0 125,62.5 125,125 0,125 			"/>
		</g>
	</mask>
	<path id="Fill-1" class="st2" d="M62.5,4C30.2,4,4,30.2,4,62.5C4,94.8,30.2,121,62.5,121S121,94.8,121,62.5C121,30.2,94.8,4,62.5,4
		 M62.5,125C28,125,0,97,0,62.5C0,28,28,0,62.5,0S125,28,125,62.5C125,97,97,125,62.5,125"/>
</g>
<polygon id="Fill-4" class="st3" points="26,22.8 34.1,24.9 27.2,50.4 19.2,48.3 "/>
<polygon id="Fill-6" class="st3" points="106.6,44.3 103.7,55.1 100.8,42.8 92.7,40.6 85.9,66.2 93.9,68.3 96.9,57.4 99.8,69.9 
	107.8,72 114.6,46.5 "/>
<path id="Fill-8" class="st3" d="M48.8,39.8c-0.2,0.8-1,1.3-1.9,1.1l-3.6-1l1.4-5.1l3.6,1c0.8,0.2,1.3,1,1.1,1.9L48.8,39.8z
	 M52.2,47.7l-0.1-0.2c2-0.1,3.6-1.5,4.1-3.4l2.1-8c0.6-2.4-0.8-4.9-3.2-5.5l-16.8-4.5l-6.8,25.5l8,2.2L42,45l2.2,0.6l1.3,9.7l8,2.2
	L52.2,47.7z"/>
<path id="Fill-10" class="st3" d="M14.7,78.6c1.1-1.6,1.7-2.5,2-3c0,0.1,0,0.3,0,0.5s0.1,1.2,0.2,3L14.7,78.6z M18.1,74.8l-2.2-0.6
	l-5,6.7l1.9,0.5l1.1-1.6l3.1,0.8l0.1,2l1.9,0.5L18.1,74.8z"/>
<path id="Fill-12" class="st3" d="M25.7,78.4c0.2-0.1,0.5-0.1,0.8,0c0.3,0.1,0.6,0.2,0.8,0.3c0.3,0.1,0.6,0.4,1,0.6l0.9-1.1
	c-0.4-0.3-0.8-0.5-1.1-0.7s-0.8-0.4-1.2-0.5c-0.9-0.2-1.6-0.2-2.3,0c-0.6,0.2-1,0.7-1.2,1.4c-0.1,0.4-0.1,0.7,0,1
	c0.1,0.3,0.2,0.6,0.4,0.9c0.2,0.3,0.5,0.6,1,0.9c0.5,0.4,0.8,0.6,1,0.8c0.1,0.2,0.3,0.3,0.3,0.4c0.1,0.1,0.1,0.3,0,0.4
	c-0.1,0.3-0.2,0.4-0.5,0.5c-0.2,0.1-0.6,0.1-1,0c-0.3-0.1-0.7-0.2-1-0.4c-0.4-0.2-0.8-0.5-1.3-0.9L22,83.6c0.6,0.5,1.4,0.9,2.3,1.1
	c1,0.3,1.8,0.3,2.5,0c0.7-0.2,1.1-0.7,1.3-1.4c0.1-0.5,0.1-0.9-0.1-1.4c-0.2-0.4-0.7-0.9-1.4-1.4c-0.5-0.4-0.9-0.7-1-0.8
	c-0.1-0.1-0.2-0.3-0.3-0.4c0-0.1-0.1-0.3,0-0.4C25.3,78.7,25.5,78.5,25.7,78.4"/>
<path id="Fill-14" class="st3" d="M34.6,80.8c0.2-0.1,0.5-0.1,0.8,0c0.3,0.1,0.6,0.2,0.8,0.3c0.3,0.1,0.6,0.4,1,0.6l0.9-1.1
	c-0.4-0.3-0.8-0.5-1.1-0.7c-0.4-0.2-0.8-0.4-1.2-0.5c-0.9-0.2-1.6-0.2-2.3,0c-0.6,0.2-1,0.7-1.2,1.4c-0.1,0.4-0.1,0.7,0,1
	c0.1,0.3,0.2,0.6,0.4,0.9c0.2,0.3,0.5,0.6,1,0.9c0.5,0.4,0.8,0.6,1,0.8c0.2,0.2,0.3,0.3,0.3,0.4c0.1,0.1,0.1,0.3,0,0.4
	c-0.1,0.3-0.2,0.4-0.5,0.5c-0.2,0.1-0.6,0.1-1,0c-0.3-0.1-0.7-0.2-1-0.4c-0.4-0.2-0.8-0.5-1.3-0.9L30.9,86c0.6,0.5,1.4,0.9,2.3,1.1
	c1,0.3,1.8,0.3,2.4,0c0.7-0.2,1.1-0.7,1.3-1.4c0.1-0.5,0.1-0.9-0.1-1.4c-0.2-0.4-0.7-0.9-1.4-1.4c-0.5-0.4-0.9-0.7-1-0.8
	c-0.1-0.1-0.2-0.3-0.3-0.4c0-0.1,0-0.3,0-0.4C34.2,81.1,34.4,80.9,34.6,80.8"/>
<path id="Fill-16" class="st3" d="M47.3,82.7l-1.2,4.6c-0.2,0.6-0.4,1-0.7,1.2c-0.3,0.2-0.8,0.2-1.4,0.1c-0.6-0.2-1-0.4-1.2-0.8
	c-0.2-0.3-0.2-0.8-0.1-1.4l1.2-4.6l-1.8-0.5l-1.3,4.8c-0.2,0.9-0.1,1.6,0.4,2.3c0.5,0.7,1.2,1.1,2.3,1.4c0.7,0.2,1.4,0.3,2,0.2
	c0.6-0.1,1.1-0.3,1.5-0.6c0.4-0.3,0.7-0.8,0.8-1.3l1.3-4.9L47.3,82.7z"/>
<path id="Fill-18" class="st3" d="M57,87.8c-0.1,0.4-0.3,0.6-0.6,0.7c-0.3,0.1-0.8,0.1-1.3-0.1l-0.6-0.2l0.5-2l0.5,0.1
	c0.6,0.2,1,0.3,1.2,0.6C57,87.1,57.1,87.4,57,87.8 M58.4,86.3C58,85.8,57.2,85.4,56,85l-2.5-0.7l-2,7.5l1.8,0.5l0.8-2.9l1,0.3
	l1.2,3.4l2,0.5l-1.6-3.9c0.6-0.1,1-0.2,1.4-0.5c0.4-0.3,0.6-0.6,0.7-1.1C59,87.4,58.9,86.8,58.4,86.3"/>
<path id="Fill-20" class="st3" d="M64.5,92c1.1-1.6,1.7-2.6,2-3c0,0.1,0,0.3,0,0.5c0,0.2,0.1,1.2,0.2,3L64.5,92z M67.9,88.2
	l-2.2-0.6l-5,6.7l1.9,0.5l1.1-1.6l3.1,0.8l0.1,2l1.9,0.5L67.9,88.2z"/>
<path id="Fill-22" class="st3" d="M80.2,91.5l-1,3.6c-0.1,0.4-0.3,1.1-0.5,2.1l0,0l-2.2-6.6L74.3,90l-2,7.5l1.6,0.4l0.9-3.5
	c0.1-0.4,0.3-1.2,0.5-2.2l0.1,0l2.2,6.7l2.3,0.6l2-7.5L80.2,91.5z"/>
<path id="Fill-24" class="st3" d="M89.9,94c-0.8-0.2-1.5-0.3-2.2-0.1c-0.7,0.2-1.3,0.5-1.7,1c-0.5,0.5-0.8,1.1-1,1.9
	c-0.3,1.2-0.3,2.3,0.2,3.1c0.5,0.8,1.3,1.4,2.6,1.8c0.9,0.2,1.7,0.3,2.4,0.2l0.4-1.3c-0.9,0-1.7,0-2.3-0.2c-1.4-0.4-1.9-1.4-1.4-3.1
	c0.2-0.8,0.6-1.4,1.1-1.7c0.5-0.4,1.1-0.4,1.7-0.3c0.3,0.1,0.6,0.2,0.9,0.4c0.3,0.2,0.6,0.4,0.9,0.6l0.9-1.1
	C91.5,94.6,90.7,94.2,89.9,94"/>
<polygon id="Fill-26" class="st3" points="100.7,98.4 101.1,97.1 96.2,95.8 94.2,103.3 99,104.6 99.4,103.3 96.3,102.5 96.8,100.6 
	99.7,101.3 100.1,100 97.2,99.3 97.6,97.6 "/>
<path id="Fill-28" class="st3" d="M93.8,80.1l-1.2,4.7c-0.1,0.4-0.5,0.6-0.9,0.5L90.9,85l1.6-6.1l0.7,0.2
	C93.7,79.3,93.9,79.7,93.8,80.1"/>
<path id="Fill-30" class="st3" d="M72.1,75.7l-1.4,2l1.5,0.4L72.1,75.7z M72.1,75.7l-1.4,2l1.5,0.4L72.1,75.7z M70.8,77.7l1.5,0.4
	l-0.2-2.4L70.8,77.7z M98.1,79.7l-2,7.5c-0.4,1.4-1.8,2.2-3.2,1.8l-6.8-1.8l3.4-12.5l6.8,1.8C97.7,76.9,98.5,78.3,98.1,79.7
	L98.1,79.7z M72.6,83.6l-0.2-2.4L69,80.3l-1.3,2l-3.6-1l7.7-11.4l3.6,1l0.9,13.7L72.6,83.6z M51.1,77.8l-3.2-0.9L44,75.9l1.1-3.9
	l2.3-8.6l3.9,1.1L49,73l3.2,0.9L51.1,77.8z M33.2,62.2l-0.4,1.4l-3.2-0.9c0.1-0.4-0.1-0.8-0.5-0.9l-0.7-0.2
	c-0.4-0.1-0.8,0.1-0.9,0.5l-1.3,4.7c-0.1,0.4,0.1,0.8,0.5,0.9l0.7,0.2c0.4,0.1,0.8-0.1,0.9-0.5l3.2,0.9l-0.4,1.4
	c-0.4,1.4-1.8,2.2-3.2,1.8l-3.9-1.1c-1.4-0.4-2.2-1.8-1.8-3.2l2-7.5c0.4-1.4,1.8-2.2,3.2-1.8l3.9,1.1C32.8,59.4,33.6,60.9,33.2,62.2
	L33.2,62.2z M18.3,52.2l-4.8,18l88,23.6l4.8-18L18.3,52.2z M72.1,75.7l-1.4,2l1.5,0.4L72.1,75.7z M72.1,75.7l-1.4,2l1.5,0.4
	L72.1,75.7z"/>
<path id="Fill-32" class="st3" d="M80.9,48.3l-12.3,6.6c-0.4,0.2-0.9,0.3-1.3,0.2l-0.1,0c-0.5-0.1-0.9-0.5-1.1-0.9l-1.8-3.8
	c-0.2-0.4-0.2-0.9-0.1-1.4c0.2-0.5,0.5-0.8,0.9-1c0.9-0.4,2-0.1,2.4,0.8l1,2.1l10.7-5.7c0.9-0.5,2-0.1,2.4,0.7
	c0.2,0.4,0.3,0.9,0.1,1.4C81.6,47.7,81.3,48.1,80.9,48.3L80.9,48.3z M86.9,55.1c0.7-1.5,1.1-3.1,1.3-4.8l-2.7-1.4
	c0-1.2-0.1-2.4-0.5-3.6l2.3-2.1c-0.6-1.5-1.4-3-2.4-4.3l-3,0.9c-0.9-0.9-1.8-1.6-2.9-2.2l0.2-3.1c-1.5-0.7-3.1-1.1-4.8-1.3L73,35.9
	c-1.2,0-2.5,0.1-3.6,0.5l-2.1-2.3c-1.5,0.6-3,1.4-4.3,2.4l0.9,3c-0.9,0.9-1.6,1.8-2.2,2.9l-3.1-0.2c-0.7,1.5-1.1,3.1-1.3,4.8
	l2.7,1.4c0,1.2,0.1,2.5,0.5,3.6l-2.3,2.1c0.6,1.6,1.4,3,2.4,4.3l3-0.9c0.9,0.9,1.8,1.6,2.9,2.2l-0.2,3.1c1.5,0.7,3.1,1.1,4.8,1.3
	l1.4-2.7c1.2,0,2.4-0.1,3.6-0.5l2.1,2.3c1.5-0.6,3-1.4,4.3-2.4l-0.9-3c0.9-0.8,1.6-1.8,2.2-2.9L86.9,55.1z"/>
<path id="Fill-34" class="st3" d="M62.9,106.4c-12.8,0-24.4-5.5-32.4-14.3L22.6,90c8.8,12.8,23.6,21.3,40.3,21.3
	c7.6,0,14.7-1.7,21.1-4.8l-7.9-2.1C71.9,105.7,67.5,106.4,62.9,106.4 M62.9,13.7c-8.9,0-17.3,2.4-24.5,6.6l7,1.9
	c5.4-2.3,11.3-3.6,17.5-3.6c14.4,0,27.3,7,35.3,17.8l7.1,1.9C96.8,23.6,81,13.7,62.9,13.7"/>
</svg>
